# xmcd CD database file
#
# Track frame offsets:
#	150
#	18271
#	41463
#	61480
#	82003
#	98081
#	116006
#	130966
#	153582
#	175140
#	191265
#	206600
#	224144
#
# Disc length: 3255 seconds
#
# Revision: 0
# Processed by: cddbd v1.5.2PL0 Copyright (c) Steve Scherf et al.
# Submitted via: CDex 1.70beta2
#
DISCID=b60cb50d
DTITLE=Barb Jungr - Stockport to Memphis
DYEAR=2012
DGENRE=Jazz
TTITLE0=Stockport to Memphis
TTITLE1=Change Is Gonna Come
TTITLE2=River
TTITLE3=Old Man
TTITLE4=New Life
TTITLE5=Urban Fox
TTITLE6=She's (He's) Not There
TTITLE7=Fisherman's Blues
TTITLE8=Lay Lady Lay
TTITLE9=Sunset To Break Your Heart
TTITLE10=Till My Broken Heart Begins to Mend
TTITLE11=Lost on the River
TTITLE12=Way Down In the Hole
EXTD=YEAR: 2012
EXTT0=
EXTT1=
EXTT2=
EXTT3=
EXTT4=
EXTT5=
EXTT6=
EXTT7=
EXTT8=
EXTT9=
EXTT10=
EXTT11=
EXTT12=
PLAYORDER=
